<svg version="1.1" viewBox="0.0 0.0 699.2125984251968 699.2125984251968" fill="none" stroke="none" stroke-linecap="square" stroke-miterlimit="10" xmlns:xlink="http://www.w3.org/1999/xlink" xmlns="http://www.w3.org/2000/svg"><clipPath id="p.0"><path d="m0 0l699.2126 0l0 699.2126l-699.2126 0l0 -699.2126z" clip-rule="nonzero"/></clipPath><g clip-path="url(#p.0)"><path fill="#000000" fill-opacity="0.0" d="m0 0l699.2126 0l0 699.2126l-699.2126 0z" fill-rule="evenodd"/><path fill="#b9b9b9" d="m9.448819 40.31471l0 0c0 -17.04676 13.819129 -30.86589 30.86589 -30.86589l618.5832 0c8.186157 0 16.036987 3.2519321 21.8255 9.04041c5.788452 5.788477 9.040405 13.639338 9.040405 21.82548l0 618.5832c0 17.046753 -13.819153 30.865906 -30.865906 30.865906l-618.5832 0c-17.04676 0 -30.86589 -13.819153 -30.86589 -30.865906z" fill-rule="evenodd"/><path stroke="#5b0f00" stroke-width="8.0" stroke-linejoin="round" stroke-linecap="butt" d="m9.448819 40.31471l0 0c0 -17.04676 13.819129 -30.86589 30.86589 -30.86589l618.5832 0c8.186157 0 16.036987 3.2519321 21.8255 9.04041c5.788452 5.788477 9.040405 13.639338 9.040405 21.82548l0 618.5832c0 17.046753 -13.819153 30.865906 -30.865906 30.865906l-618.5832 0c-17.04676 0 -30.86589 -13.819153 -30.86589 -30.865906z" fill-rule="evenodd"/><g filter="url(#shadowFilter-p.1)"><use xlink:href="#p.1" transform=""/></g><defs><filter id="shadowFilter-p.1" filterUnits="userSpaceOnUse"><feGaussianBlur in="SourceAlpha" stdDeviation="3.0" result="blur"/><feComponentTransfer in="blur" color-interpolation-filters="sRGB"><feFuncR type="linear" slope="0" intercept="0.0"/><feFuncG type="linear" slope="0" intercept="0.0"/><feFuncB type="linear" slope="0" intercept="0.0"/><feFuncA type="linear" slope="1.0" intercept="0"/></feComponentTransfer></filter></defs><g id="p.1"><defs><linearGradient id="p.2" gradientUnits="userSpaceOnUse" gradientTransform="matrix(17.279058398647354 0.0 0.0 17.279058398647354 0.0 0.0)" spreadMethod="pad" x1="-1.5990412063378288" y1="6.199745754388818" x2="10.619076057350991" y2="18.41790722306384"><stop offset="0.0" stop-color="#cc0000"/><stop offset="1.0" stop-color="#a61c00"/></linearGradient></defs><path fill="url(#p.2)" d="m33.582676 66.31799l0 0c0 -11.269154 9.135456 -20.404606 20.40461 -20.404606l259.00183 0c5.411621 0 10.601624 2.149765 14.428223 5.976368c3.8265991 3.8266068 5.9763794 9.016602 5.9763794 14.428238l0 81.61598c0 11.26915 -9.135468 20.404602 -20.404602 20.404602l-259.00183 0l0 0c-11.269154 0 -20.40461 -9.135452 -20.40461 -20.404602z" fill-rule="evenodd"/><path stroke="#5b0f00" stroke-width="8.0" stroke-linejoin="round" stroke-linecap="butt" d="m33.582676 66.31799l0 0c0 -11.269154 9.135456 -20.404606 20.40461 -20.404606l259.00183 0c5.411621 0 10.601624 2.149765 14.428223 5.976368c3.8265991 3.8266068 5.9763794 9.016602 5.9763794 14.428238l0 81.61598c0 11.26915 -9.135468 20.404602 -20.404602 20.404602l-259.00183 0l0 0c-11.269154 0 -20.40461 -9.135452 -20.40461 -20.404602z" fill-rule="evenodd"/></g><g filter="url(#shadowFilter-p.3)"><use xlink:href="#p.3" transform=""/></g><defs><filter id="shadowFilter-p.3" filterUnits="userSpaceOnUse"><feGaussianBlur in="SourceAlpha" stdDeviation="3.0" result="blur"/><feComponentTransfer in="blur" color-interpolation-filters="sRGB"><feFuncR type="linear" slope="0" intercept="0.0"/><feFuncG type="linear" slope="0" intercept="0.0"/><feFuncB type="linear" slope="0" intercept="0.0"/><feFuncA type="linear" slope="1.0" intercept="0"/></feComponentTransfer></filter></defs><g id="p.3"><defs><linearGradient id="p.4" gradientUnits="userSpaceOnUse" gradientTransform="matrix(17.283569504768593 0.0 0.0 17.283569504768593 0.0 0.0)" spreadMethod="pad" x1="17.61219374962818" y1="6.198278853021921" x2="29.833501001115295" y2="18.419630001357167"><stop offset="0.0" stop-color="#cc0000"/><stop offset="1.0" stop-color="#a61c00"/></linearGradient></defs><path fill="url(#p.4)" d="m365.61417 66.32062l0 0c0 -11.269154 9.135468 -20.404606 20.404602 -20.404606l259.22232 0c5.411621 0 10.601624 2.149765 14.428223 5.976372c3.8265991 3.826603 5.9763794 9.016598 5.9763794 14.428234l0 81.61598c0 11.26915 -9.135498 20.404602 -20.404602 20.404602l-259.22232 0l0 0c-11.2691345 0 -20.404602 -9.135452 -20.404602 -20.404602z" fill-rule="evenodd"/><path stroke="#5b0f00" stroke-width="8.0" stroke-linejoin="round" stroke-linecap="butt" d="m365.61417 66.32062l0 0c0 -11.269154 9.135468 -20.404606 20.404602 -20.404606l259.22232 0c5.411621 0 10.601624 2.149765 14.428223 5.976372c3.8265991 3.826603 5.9763794 9.016598 5.9763794 14.428234l0 81.61598c0 11.26915 -9.135498 20.404602 -20.404602 20.404602l-259.22232 0l0 0c-11.2691345 0 -20.404602 -9.135452 -20.404602 -20.404602z" fill-rule="evenodd"/></g><g filter="url(#shadowFilter-p.5)"><use xlink:href="#p.5" transform=""/></g><defs><filter id="shadowFilter-p.5" filterUnits="userSpaceOnUse"><feGaussianBlur in="SourceAlpha" stdDeviation="3.0" result="blur"/><feComponentTransfer in="blur" color-interpolation-filters="sRGB"><feFuncR type="linear" slope="0" intercept="0.0"/><feFuncG type="linear" slope="0" intercept="0.0"/><feFuncB type="linear" slope="0" intercept="0.0"/><feFuncA type="linear" slope="1.0" intercept="0"/></feComponentTransfer></filter></defs><g id="p.5"><defs><linearGradient id="p.6" gradientUnits="userSpaceOnUse" gradientTransform="matrix(17.684811217583754 0.0 0.0 17.684811217583754 0.0 0.0)" spreadMethod="pad" x1="7.257881204446667" y1="15.282338786972193" x2="19.762909400066853" y2="27.787410463229005"><stop offset="0.0" stop-color="#cc0000"/><stop offset="1.0" stop-color="#a61c00"/></linearGradient></defs><path fill="url(#p.6)" d="m197.56685 224.12425l0 0c0 -12.741943 10.3293915 -23.071335 23.071335 -23.071335l257.73135 0c6.1188965 0 11.987183 2.430725 16.313904 6.757431c4.326721 4.326721 6.757416 10.195007 6.757416 16.313904l0 92.28255c0 12.741943 -10.329376 23.07132 -23.07132 23.07132l-257.73135 0c-12.741943 0 -23.071335 -10.329376 -23.071335 -23.07132z" fill-rule="evenodd"/><path stroke="#5b0f00" stroke-width="8.0" stroke-linejoin="round" stroke-linecap="butt" d="m197.56685 224.12425l0 0c0 -12.741943 10.3293915 -23.071335 23.071335 -23.071335l257.73135 0c6.1188965 0 11.987183 2.430725 16.313904 6.757431c4.326721 4.326721 6.757416 10.195007 6.757416 16.313904l0 92.28255c0 12.741943 -10.329376 23.07132 -23.07132 23.07132l-257.73135 0c-12.741943 0 -23.071335 -10.329376 -23.071335 -23.07132z" fill-rule="evenodd"/></g><g filter="url(#shadowFilter-p.7)"><use xlink:href="#p.7" transform=""/></g><defs><filter id="shadowFilter-p.7" filterUnits="userSpaceOnUse"><feGaussianBlur in="SourceAlpha" stdDeviation="3.0" result="blur"/><feComponentTransfer in="blur" color-interpolation-filters="sRGB"><feFuncR type="linear" slope="0" intercept="0.0"/><feFuncG type="linear" slope="0" intercept="0.0"/><feFuncB type="linear" slope="0" intercept="0.0"/><feFuncA type="linear" slope="1.0" intercept="0"/></feComponentTransfer></filter></defs><g id="p.7"><defs><linearGradient id="p.8" gradientUnits="userSpaceOnUse" gradientTransform="matrix(13.827408268262516 0.0 0.0 13.827408268262516 0.0 0.0)" spreadMethod="pad" x1="33.58900018622204" y1="19.545589495672356" x2="43.36643654362098" y2="29.323061443687752"><stop offset="0.0" stop-color="#cc0000"/><stop offset="1.0" stop-color="#a61c00"/></linearGradient></defs><path fill="url(#p.8)" d="m533.6614 223.04768l0 0c0 -12.147614 9.847595 -21.995193 21.99524 -21.995193l87.97809 0l0 0c5.833496 0 11.42804 2.3173523 15.5529785 6.4422455c4.124878 4.124893 6.4421997 9.719467 6.4421997 15.552948l0 94.43483c0 12.147583 -9.847534 21.995178 -21.995178 21.995178l-87.97809 0l0 0c-12.147644 0 -21.99524 -9.847595 -21.99524 -21.995178z" fill-rule="evenodd"/><path stroke="#5b0f00" stroke-width="8.0" stroke-linejoin="round" stroke-linecap="butt" d="m533.6614 223.04768l0 0c0 -12.147614 9.847595 -21.995193 21.99524 -21.995193l87.97809 0l0 0c5.833496 0 11.42804 2.3173523 15.5529785 6.4422455c4.124878 4.124893 6.4421997 9.719467 6.4421997 15.552948l0 94.43483c0 12.147583 -9.847534 21.995178 -21.995178 21.995178l-87.97809 0l0 0c-12.147644 0 -21.99524 -9.847595 -21.99524 -21.995178z" fill-rule="evenodd"/></g><g filter="url(#shadowFilter-p.9)"><use xlink:href="#p.9" transform=""/></g><defs><filter id="shadowFilter-p.9" filterUnits="userSpaceOnUse"><feGaussianBlur in="SourceAlpha" stdDeviation="3.0" result="blur"/><feComponentTransfer in="blur" color-interpolation-filters="sRGB"><feFuncR type="linear" slope="0" intercept="0.0"/><feFuncG type="linear" slope="0" intercept="0.0"/><feFuncB type="linear" slope="0" intercept="0.0"/><feFuncA type="linear" slope="1.0" intercept="0"/></feComponentTransfer></filter></defs><g id="p.9"><defs><linearGradient id="p.10" gradientUnits="userSpaceOnUse" gradientTransform="matrix(13.827408595948983 0.0 0.0 13.827408595948983 0.0 0.0)" spreadMethod="pad" x1="-2.5773302055446257" y1="19.54558903247456" x2="7.200106846984367" y2="29.323060748780218"><stop offset="0.0" stop-color="#cc0000"/><stop offset="1.0" stop-color="#a61c00"/></linearGradient></defs><path fill="url(#p.10)" d="m33.574802 223.04768l0 0c0 -12.147614 9.847584 -21.995193 21.99519 -21.995193l87.97812 0l0 0c5.833496 0 11.428055 2.3173523 15.552948 6.4422455c4.1249084 4.124893 6.4422455 9.719467 6.4422455 15.552948l0 94.43483c0 12.147583 -9.84758 21.995178 -21.995193 21.995178l-87.97812 0l0 0c-12.147606 0 -21.99519 -9.847595 -21.99519 -21.995178z" fill-rule="evenodd"/><path stroke="#5b0f00" stroke-width="8.0" stroke-linejoin="round" stroke-linecap="butt" d="m33.574802 223.04768l0 0c0 -12.147614 9.847584 -21.995193 21.99519 -21.995193l87.97812 0l0 0c5.833496 0 11.428055 2.3173523 15.552948 6.4422455c4.1249084 4.124893 6.4422455 9.719467 6.4422455 15.552948l0 94.43483c0 12.147583 -9.84758 21.995178 -21.995193 21.995178l-87.97812 0l0 0c-12.147606 0 -21.99519 -9.847595 -21.99519 -21.995178z" fill-rule="evenodd"/></g><g filter="url(#shadowFilter-p.11)"><use xlink:href="#p.11" transform=""/></g><defs><filter id="shadowFilter-p.11" filterUnits="userSpaceOnUse"><feGaussianBlur in="SourceAlpha" stdDeviation="3.0" result="blur"/><feComponentTransfer in="blur" color-interpolation-filters="sRGB"><feFuncR type="linear" slope="0" intercept="0.0"/><feFuncG type="linear" slope="0" intercept="0.0"/><feFuncB type="linear" slope="0" intercept="0.0"/><feFuncA type="linear" slope="1.0" intercept="0"/></feComponentTransfer></filter></defs><g id="p.11"><defs><linearGradient id="p.12" gradientUnits="userSpaceOnUse" gradientTransform="matrix(17.279058346200983 0.0 0.0 17.279058346200983 0.0 0.0)" spreadMethod="pad" x1="-1.5990404694969271" y1="25.082616525677828" x2="10.619077276293652" y2="37.30077743808258"><stop offset="0.0" stop-color="#cc0000"/><stop offset="1.0" stop-color="#a61c00"/></linearGradient></defs><path fill="url(#p.12)" d="m33.582676 392.59622l0 0c0 -11.269165 9.135456 -20.404633 20.40461 -20.404633l259.00183 0c5.411621 0 10.601624 2.1497803 14.428223 5.9763794c3.8265991 3.8265991 5.9763794 9.016602 5.9763794 14.428253l0 81.61597c0 11.269165 -9.135468 20.404602 -20.404602 20.404602l-259.00183 0l0 0c-11.269154 0 -20.40461 -9.135437 -20.40461 -20.404602z" fill-rule="evenodd"/><path stroke="#5b0f00" stroke-width="8.0" stroke-linejoin="round" stroke-linecap="butt" d="m33.582676 392.59622l0 0c0 -11.269165 9.135456 -20.404633 20.40461 -20.404633l259.00183 0c5.411621 0 10.601624 2.1497803 14.428223 5.9763794c3.8265991 3.8265991 5.9763794 9.016602 5.9763794 14.428253l0 81.61597c0 11.269165 -9.135468 20.404602 -20.404602 20.404602l-259.00183 0l0 0c-11.269154 0 -20.40461 -9.135437 -20.40461 -20.404602z" fill-rule="evenodd"/></g><g filter="url(#shadowFilter-p.13)"><use xlink:href="#p.13" transform=""/></g><defs><filter id="shadowFilter-p.13" filterUnits="userSpaceOnUse"><feGaussianBlur in="SourceAlpha" stdDeviation="3.0" result="blur"/><feComponentTransfer in="blur" color-interpolation-filters="sRGB"><feFuncR type="linear" slope="0" intercept="0.0"/><feFuncG type="linear" slope="0" intercept="0.0"/><feFuncB type="linear" slope="0" intercept="0.0"/><feFuncA type="linear" slope="1.0" intercept="0"/></feComponentTransfer></filter></defs><g id="p.13"><defs><linearGradient id="p.14" gradientUnits="userSpaceOnUse" gradientTransform="matrix(17.2835682464007 0.0 0.0 17.2835682464007 0.0 0.0)" spreadMethod="pad" x1="17.612195031922365" y1="25.076071575256368" x2="29.83350080040564" y2="37.297422426992355"><stop offset="0.0" stop-color="#cc0000"/><stop offset="1.0" stop-color="#a61c00"/></linearGradient></defs><path fill="url(#p.14)" d="m365.61417 392.59622l0 0c0 -11.269165 9.135468 -20.404633 20.404602 -20.404633l259.22232 0c5.411621 0 10.601624 2.1497803 14.428223 5.9763794c3.8265991 3.8265991 5.9763794 9.016602 5.9763794 14.428253l0 81.61597c0 11.269165 -9.135498 20.404602 -20.404602 20.404602l-259.22232 0l0 0c-11.2691345 0 -20.404602 -9.135437 -20.404602 -20.404602z" fill-rule="evenodd"/><path stroke="#5b0f00" stroke-width="8.0" stroke-linejoin="round" stroke-linecap="butt" d="m365.61417 392.59622l0 0c0 -11.269165 9.135468 -20.404633 20.404602 -20.404633l259.22232 0c5.411621 0 10.601624 2.1497803 14.428223 5.9763794c3.8265991 3.8265991 5.9763794 9.016602 5.9763794 14.428253l0 81.61597c0 11.269165 -9.135498 20.404602 -20.404602 20.404602l-259.22232 0l0 0c-11.2691345 0 -20.404602 -9.135437 -20.404602 -20.404602z" fill-rule="evenodd"/></g><g filter="url(#shadowFilter-p.15)"><use xlink:href="#p.15" transform=""/></g><defs><filter id="shadowFilter-p.15" filterUnits="userSpaceOnUse"><feGaussianBlur in="SourceAlpha" stdDeviation="3.0" result="blur"/><feComponentTransfer in="blur" color-interpolation-filters="sRGB"><feFuncR type="linear" slope="0" intercept="0.0"/><feFuncG type="linear" slope="0" intercept="0.0"/><feFuncB type="linear" slope="0" intercept="0.0"/><feFuncA type="linear" slope="1.0" intercept="0"/></feComponentTransfer></filter></defs><g id="p.15"><defs><linearGradient id="p.16" gradientUnits="userSpaceOnUse" gradientTransform="matrix(17.524145601217377 0.0 0.0 17.524145601217377 0.0 0.0)" spreadMethod="pad" x1="7.552684391762394" y1="33.812947774866714" x2="19.944105226283423" y2="46.20441131855132"><stop offset="0.0" stop-color="#cc0000"/><stop offset="1.0" stop-color="#a61c00"/></linearGradient></defs><path fill="url(#p.16)" d="m197.56693 549.0686l0 0c0 -12.005554 9.732422 -21.737976 21.737976 -21.737976l260.39807 0c5.765259 0 11.294403 2.2902222 15.371063 6.3668823c4.07666 4.07666 6.366913 9.605835 6.366913 15.371094l0 86.94928c0 12.005554 -9.732422 21.737915 -21.737976 21.737915l-260.39807 0c-12.005554 0 -21.737976 -9.732361 -21.737976 -21.737915z" fill-rule="evenodd"/><path stroke="#5b0f00" stroke-width="8.0" stroke-linejoin="round" stroke-linecap="butt" d="m197.56693 549.0686l0 0c0 -12.005554 9.732422 -21.737976 21.737976 -21.737976l260.39807 0c5.765259 0 11.294403 2.2902222 15.371063 6.3668823c4.07666 4.07666 6.366913 9.605835 6.366913 15.371094l0 86.94928c0 12.005554 -9.732422 21.737915 -21.737976 21.737915l-260.39807 0c-12.005554 0 -21.737976 -9.732361 -21.737976 -21.737915z" fill-rule="evenodd"/></g><g filter="url(#shadowFilter-p.17)"><use xlink:href="#p.17" transform=""/></g><defs><filter id="shadowFilter-p.17" filterUnits="userSpaceOnUse"><feGaussianBlur in="SourceAlpha" stdDeviation="3.0" result="blur"/><feComponentTransfer in="blur" color-interpolation-filters="sRGB"><feFuncR type="linear" slope="0" intercept="0.0"/><feFuncG type="linear" slope="0" intercept="0.0"/><feFuncB type="linear" slope="0" intercept="0.0"/><feFuncA type="linear" slope="1.0" intercept="0"/></feComponentTransfer></filter></defs><g id="p.17"><defs><linearGradient id="p.18" gradientUnits="userSpaceOnUse" gradientTransform="matrix(13.621319178731484 0.0 0.0 13.621319178731484 0.0 0.0)" spreadMethod="pad" x1="34.39086749182673" y1="43.50114186571083" x2="44.022578092629686" y2="53.13288558485421"><stop offset="0.0" stop-color="#cc0000"/><stop offset="1.0" stop-color="#a61c00"/></linearGradient></defs><path fill="url(#p.18)" d="m533.6616 549.06854l0 0c0 -12.005554 9.732422 -21.737976 21.737976 -21.737976l88.49255 0l0 0c5.765259 0 11.294434 2.2902832 15.371094 6.3669434c4.07666 4.07666 6.3668823 9.605774 6.3668823 15.371033l0 86.94928c0 12.005554 -9.732422 21.737976 -21.737976 21.737976l-88.49255 0c-12.005554 0 -21.737976 -9.732422 -21.737976 -21.737976z" fill-rule="evenodd"/><path stroke="#5b0f00" stroke-width="8.0" stroke-linejoin="round" stroke-linecap="butt" d="m533.6616 549.06854l0 0c0 -12.005554 9.732422 -21.737976 21.737976 -21.737976l88.49255 0l0 0c5.765259 0 11.294434 2.2902832 15.371094 6.3669434c4.07666 4.07666 6.3668823 9.605774 6.3668823 15.371033l0 86.94928c0 12.005554 -9.732422 21.737976 -21.737976 21.737976l-88.49255 0c-12.005554 0 -21.737976 -9.732422 -21.737976 -21.737976z" fill-rule="evenodd"/></g><g filter="url(#shadowFilter-p.19)"><use xlink:href="#p.19" transform=""/></g><defs><filter id="shadowFilter-p.19" filterUnits="userSpaceOnUse"><feGaussianBlur in="SourceAlpha" stdDeviation="3.0" result="blur"/><feComponentTransfer in="blur" color-interpolation-filters="sRGB"><feFuncR type="linear" slope="0" intercept="0.0"/><feFuncG type="linear" slope="0" intercept="0.0"/><feFuncB type="linear" slope="0" intercept="0.0"/><feFuncA type="linear" slope="1.0" intercept="0"/></feComponentTransfer></filter></defs><g id="p.19"><defs><linearGradient id="p.20" gradientUnits="userSpaceOnUse" gradientTransform="matrix(13.621321041543426 0.0 0.0 13.621321041543426 0.0 0.0)" spreadMethod="pad" x1="-2.3220891104008916" y1="43.50114494889559" x2="7.30962243126591" y2="53.13289036158774"><stop offset="0.0" stop-color="#cc0000"/><stop offset="1.0" stop-color="#a61c00"/></linearGradient></defs><path fill="url(#p.20)" d="m33.582676 549.06866l0 0c0 -12.005554 9.732422 -21.737976 21.737968 -21.737976l88.49257 0l0 0c5.765259 0 11.294403 2.2902832 15.371063 6.3669434c4.07666 4.07666 6.3668976 9.605774 6.3668976 15.371033l0 86.94928c0 12.005554 -9.732422 21.737976 -21.73796 21.737976l-88.49257 0c-12.005547 0 -21.737968 -9.732422 -21.737968 -21.737976z" fill-rule="evenodd"/><path stroke="#5b0f00" stroke-width="8.0" stroke-linejoin="round" stroke-linecap="butt" d="m33.582676 549.06866l0 0c0 -12.005554 9.732422 -21.737976 21.737968 -21.737976l88.49257 0l0 0c5.765259 0 11.294403 2.2902832 15.371063 6.3669434c4.07666 4.07666 6.3668976 9.605774 6.3668976 15.371033l0 86.94928c0 12.005554 -9.732422 21.737976 -21.73796 21.737976l-88.49257 0c-12.005547 0 -21.737968 -9.732422 -21.737968 -21.737976z" fill-rule="evenodd"/></g><path fill="#000000" fill-opacity="0.0" d="m345.18103 201.84163l136.8504 136.85039" fill-rule="evenodd"/><path stroke="#ff0000" stroke-width="4.0" stroke-linejoin="round" stroke-linecap="butt" d="m345.18103 201.84163l136.8504 136.85039" fill-rule="evenodd"/><path fill="#000000" fill-opacity="0.0" d="m361.18103 201.84163l133.25983 133.25984" fill-rule="evenodd"/><path stroke="#ff0000" stroke-width="4.0" stroke-linejoin="round" stroke-linecap="butt" d="m361.18103 201.84163l133.25983 133.25984" fill-rule="evenodd"/><path fill="#000000" fill-opacity="0.0" d="m377.18103 201.84163l123.3071 123.27559" fill-rule="evenodd"/><path stroke="#ff0000" stroke-width="4.0" stroke-linejoin="round" stroke-linecap="butt" d="m377.18103 201.84163l123.3071 123.27559" fill-rule="evenodd"/><path fill="#000000" fill-opacity="0.0" d="m393.18103 201.84163l108.22046 108.220474" fill-rule="evenodd"/><path stroke="#ff0000" stroke-width="4.0" stroke-linejoin="round" stroke-linecap="butt" d="m393.18103 201.84163l108.22046 108.220474" fill-rule="evenodd"/><path fill="#000000" fill-opacity="0.0" d="m409.18103 201.84163l92.53543 92.535446" fill-rule="evenodd"/><path stroke="#ff0000" stroke-width="4.0" stroke-linejoin="round" stroke-linecap="butt" d="m409.18103 201.84163l92.53543 92.535446" fill-rule="evenodd"/><path fill="#000000" fill-opacity="0.0" d="m425.18103 201.84163l76.409454 76.40944" fill-rule="evenodd"/><path stroke="#ff0000" stroke-width="4.0" stroke-linejoin="round" stroke-linecap="butt" d="m425.18103 201.84163l76.409454 76.40944" fill-rule="evenodd"/><path fill="#000000" fill-opacity="0.0" d="m441.18103 201.84163l61.165344 61.16536" fill-rule="evenodd"/><path stroke="#ff0000" stroke-width="4.0" stroke-linejoin="round" stroke-linecap="butt" d="m441.18103 201.84163l61.165344 61.16536" fill-rule="evenodd"/><path fill="#000000" fill-opacity="0.0" d="m457.18103 201.84163l44.881897 44.881897" fill-rule="evenodd"/><path stroke="#ff0000" stroke-width="4.0" stroke-linejoin="round" stroke-linecap="butt" d="m457.18103 201.84163l44.881897 44.881897" fill-rule="evenodd"/><path fill="#000000" fill-opacity="0.0" d="m473.18103 201.84163l28.346466 28.346466" fill-rule="evenodd"/><path stroke="#ff0000" stroke-width="4.0" stroke-linejoin="round" stroke-linecap="butt" d="m473.18103 201.84163l28.346466 28.346466" fill-rule="evenodd"/><path fill="#000000" fill-opacity="0.0" d="m329.18103 201.84163l136.8504 136.85039" fill-rule="evenodd"/><path stroke="#ff0000" stroke-width="4.0" stroke-linejoin="round" stroke-linecap="butt" d="m329.18103 201.84163l136.8504 136.85039" fill-rule="evenodd"/><path fill="#000000" fill-opacity="0.0" d="m313.18103 201.84163l136.8504 136.85039" fill-rule="evenodd"/><path stroke="#ff0000" stroke-width="4.0" stroke-linejoin="round" stroke-linecap="butt" d="m313.18103 201.84163l136.8504 136.85039" fill-rule="evenodd"/><path fill="#000000" fill-opacity="0.0" d="m297.18103 201.84163l136.8504 136.85039" fill-rule="evenodd"/><path stroke="#ff0000" stroke-width="4.0" stroke-linejoin="round" stroke-linecap="butt" d="m297.18103 201.84163l136.8504 136.85039" fill-rule="evenodd"/><path fill="#000000" fill-opacity="0.0" d="m281.18103 201.84163l136.8504 136.85039" fill-rule="evenodd"/><path stroke="#ff0000" stroke-width="4.0" stroke-linejoin="round" stroke-linecap="butt" d="m281.18103 201.84163l136.8504 136.85039" fill-rule="evenodd"/><path fill="#000000" fill-opacity="0.0" d="m265.18103 201.84163l136.8504 136.85039" fill-rule="evenodd"/><path stroke="#ff0000" stroke-width="4.0" stroke-linejoin="round" stroke-linecap="butt" d="m265.18103 201.84163l136.8504 136.85039" fill-rule="evenodd"/><path fill="#000000" fill-opacity="0.0" d="m249.18103 201.84163l136.8504 136.85039" fill-rule="evenodd"/><path stroke="#ff0000" stroke-width="4.0" stroke-linejoin="round" stroke-linecap="butt" d="m249.18103 201.84163l136.8504 136.85039" fill-rule="evenodd"/><path fill="#000000" fill-opacity="0.0" d="m233.18103 201.84163l136.8504 136.85039" fill-rule="evenodd"/><path stroke="#ff0000" stroke-width="4.0" stroke-linejoin="round" stroke-linecap="butt" d="m233.18103 201.84163l136.8504 136.85039" fill-rule="evenodd"/><path fill="#000000" fill-opacity="0.0" d="m217.18103 201.84163l136.8504 136.85039" fill-rule="evenodd"/><path stroke="#ff0000" stroke-width="4.0" stroke-linejoin="round" stroke-linecap="butt" d="m217.18103 201.84163l136.8504 136.85039" fill-rule="evenodd"/><path fill="#000000" fill-opacity="0.0" d="m205.24147 205.9029l132.7874 132.78738" fill-rule="evenodd"/><path stroke="#ff0000" stroke-width="4.0" stroke-linejoin="round" stroke-linecap="butt" d="m205.24147 205.9029l132.7874 132.78738" fill-rule="evenodd"/><path fill="#000000" fill-opacity="0.0" d="m198.59842 215.25722l123.433075 123.43306" fill-rule="evenodd"/><path stroke="#ff0000" stroke-width="4.0" stroke-linejoin="round" stroke-linecap="butt" d="m198.59842 215.25722l123.433075 123.43306" fill-rule="evenodd"/><path fill="#000000" fill-opacity="0.0" d="m197.37534 230.03412l108.66141 108.66141" fill-rule="evenodd"/><path stroke="#ff0000" stroke-width="4.0" stroke-linejoin="round" stroke-linecap="butt" d="m197.37534 230.03412l108.66141 108.66141" fill-rule="evenodd"/><path fill="#000000" fill-opacity="0.0" d="m197.50656 246.16798l92.53543 92.535416" fill-rule="evenodd"/><path stroke="#ff0000" stroke-width="4.0" stroke-linejoin="round" stroke-linecap="butt" d="m197.50656 246.16798l92.53543 92.535416" fill-rule="evenodd"/><path fill="#000000" fill-opacity="0.0" d="m197.79002 262.45145l76.25197 76.25195" fill-rule="evenodd"/><path stroke="#ff0000" stroke-width="4.0" stroke-linejoin="round" stroke-linecap="butt" d="m197.79002 262.45145l76.25197 76.25195" fill-rule="evenodd"/><path fill="#000000" fill-opacity="0.0" d="m197.021 277.67978l61.007874 61.007874" fill-rule="evenodd"/><path stroke="#ff0000" stroke-width="4.0" stroke-linejoin="round" stroke-linecap="butt" d="m197.021 277.67978l61.007874 61.007874" fill-rule="evenodd"/><path fill="#000000" fill-opacity="0.0" d="m197.90552 294.5643l44.125977 44.125977" fill-rule="evenodd"/><path stroke="#ff0000" stroke-width="4.0" stroke-linejoin="round" stroke-linecap="butt" d="m197.90552 294.5643l44.125977 44.125977" fill-rule="evenodd"/><path fill="#000000" fill-opacity="0.0" d="m196.98425 309.64304l29.039368 29.039368" fill-rule="evenodd"/><path stroke="#ff0000" stroke-width="4.0" stroke-linejoin="round" stroke-linecap="butt" d="m196.98425 309.64304l29.039368 29.039368" fill-rule="evenodd"/><path fill="#000000" fill-opacity="0.0" d="m354.1496 201.84163l-136.85039 136.85039" fill-rule="evenodd"/><path stroke="#ff0000" stroke-width="4.0" stroke-linejoin="round" stroke-linecap="butt" d="m354.1496 201.84163l-136.85039 136.85039" fill-rule="evenodd"/><path fill="#000000" fill-opacity="0.0" d="m338.1496 201.84163l-133.25983 133.25984" fill-rule="evenodd"/><path stroke="#ff0000" stroke-width="4.0" stroke-linejoin="round" stroke-linecap="butt" d="m338.1496 201.84163l-133.25983 133.25984" fill-rule="evenodd"/><path fill="#000000" fill-opacity="0.0" d="m322.1496 201.84163l-123.30708 123.27559" fill-rule="evenodd"/><path stroke="#ff0000" stroke-width="4.0" stroke-linejoin="round" stroke-linecap="butt" d="m322.1496 201.84163l-123.30708 123.27559" fill-rule="evenodd"/><path fill="#000000" fill-opacity="0.0" d="m306.1496 201.84163l-108.22046 108.220474" fill-rule="evenodd"/><path stroke="#ff0000" stroke-width="4.0" stroke-linejoin="round" stroke-linecap="butt" d="m306.1496 201.84163l-108.22046 108.220474" fill-rule="evenodd"/><path fill="#000000" fill-opacity="0.0" d="m290.1496 201.84163l-92.53543 92.535446" fill-rule="evenodd"/><path stroke="#ff0000" stroke-width="4.0" stroke-linejoin="round" stroke-linecap="butt" d="m290.1496 201.84163l-92.53543 92.535446" fill-rule="evenodd"/><path fill="#000000" fill-opacity="0.0" d="m274.1496 201.84163l-76.40944 76.40944" fill-rule="evenodd"/><path stroke="#ff0000" stroke-width="4.0" stroke-linejoin="round" stroke-linecap="butt" d="m274.1496 201.84163l-76.40944 76.40944" fill-rule="evenodd"/><path fill="#000000" fill-opacity="0.0" d="m258.1496 201.84163l-61.165344 61.16536" fill-rule="evenodd"/><path stroke="#ff0000" stroke-width="4.0" stroke-linejoin="round" stroke-linecap="butt" d="m258.1496 201.84163l-61.165344 61.16536" fill-rule="evenodd"/><path fill="#000000" fill-opacity="0.0" d="m242.14961 201.84163l-44.881897 44.881897" fill-rule="evenodd"/><path stroke="#ff0000" stroke-width="4.0" stroke-linejoin="round" stroke-linecap="butt" d="m242.14961 201.84163l-44.881897 44.881897" fill-rule="evenodd"/><path fill="#000000" fill-opacity="0.0" d="m226.14961 201.84163l-28.346466 28.346466" fill-rule="evenodd"/><path stroke="#ff0000" stroke-width="4.0" stroke-linejoin="round" stroke-linecap="butt" d="m226.14961 201.84163l-28.346466 28.346466" fill-rule="evenodd"/><path fill="#000000" fill-opacity="0.0" d="m370.1496 201.84163l-136.85039 136.85039" fill-rule="evenodd"/><path stroke="#ff0000" stroke-width="4.0" stroke-linejoin="round" stroke-linecap="butt" d="m370.1496 201.84163l-136.85039 136.85039" fill-rule="evenodd"/><path fill="#000000" fill-opacity="0.0" d="m386.1496 201.84163l-136.85039 136.85039" fill-rule="evenodd"/><path stroke="#ff0000" stroke-width="4.0" stroke-linejoin="round" stroke-linecap="butt" d="m386.1496 201.84163l-136.85039 136.85039" fill-rule="evenodd"/><path fill="#000000" fill-opacity="0.0" d="m402.1496 201.84163l-136.85037 136.85039" fill-rule="evenodd"/><path stroke="#ff0000" stroke-width="4.0" stroke-linejoin="round" stroke-linecap="butt" d="m402.1496 201.84163l-136.85037 136.85039" fill-rule="evenodd"/><path fill="#000000" fill-opacity="0.0" d="m418.1496 201.84163l-136.85037 136.85039" fill-rule="evenodd"/><path stroke="#ff0000" stroke-width="4.0" stroke-linejoin="round" stroke-linecap="butt" d="m418.1496 201.84163l-136.85037 136.85039" fill-rule="evenodd"/><path fill="#000000" fill-opacity="0.0" d="m434.1496 201.84163l-136.85037 136.85039" fill-rule="evenodd"/><path stroke="#ff0000" stroke-width="4.0" stroke-linejoin="round" stroke-linecap="butt" d="m434.1496 201.84163l-136.85037 136.85039" fill-rule="evenodd"/><path fill="#000000" fill-opacity="0.0" d="m450.1496 201.84163l-136.85037 136.85039" fill-rule="evenodd"/><path stroke="#ff0000" stroke-width="4.0" stroke-linejoin="round" stroke-linecap="butt" d="m450.1496 201.84163l-136.85037 136.85039" fill-rule="evenodd"/><path fill="#000000" fill-opacity="0.0" d="m466.1496 201.84163l-136.85037 136.85039" fill-rule="evenodd"/><path stroke="#ff0000" stroke-width="4.0" stroke-linejoin="round" stroke-linecap="butt" d="m466.1496 201.84163l-136.85037 136.85039" fill-rule="evenodd"/><path fill="#000000" fill-opacity="0.0" d="m482.1496 201.84163l-136.85037 136.85039" fill-rule="evenodd"/><path stroke="#ff0000" stroke-width="4.0" stroke-linejoin="round" stroke-linecap="butt" d="m482.1496 201.84163l-136.85037 136.85039" fill-rule="evenodd"/><path fill="#000000" fill-opacity="0.0" d="m494.08917 205.9029l-132.78741 132.78738" fill-rule="evenodd"/><path stroke="#ff0000" stroke-width="4.0" stroke-linejoin="round" stroke-linecap="butt" d="m494.08917 205.9029l-132.78741 132.78738" fill-rule="evenodd"/><path fill="#000000" fill-opacity="0.0" d="m500.7322 215.25722l-123.433075 123.43306" fill-rule="evenodd"/><path stroke="#ff0000" stroke-width="4.0" stroke-linejoin="round" stroke-linecap="butt" d="m500.7322 215.25722l-123.433075 123.43306" fill-rule="evenodd"/><path fill="#000000" fill-opacity="0.0" d="m501.95532 230.03412l-108.66144 108.66141" fill-rule="evenodd"/><path stroke="#ff0000" stroke-width="4.0" stroke-linejoin="round" stroke-linecap="butt" d="m501.95532 230.03412l-108.66144 108.66141" fill-rule="evenodd"/><path fill="#000000" fill-opacity="0.0" d="m501.82407 246.16798l-92.53543 92.535416" fill-rule="evenodd"/><path stroke="#ff0000" stroke-width="4.0" stroke-linejoin="round" stroke-linecap="butt" d="m501.82407 246.16798l-92.53543 92.535416" fill-rule="evenodd"/><path fill="#000000" fill-opacity="0.0" d="m501.54062 262.45145l-76.25198 76.25195" fill-rule="evenodd"/><path stroke="#ff0000" stroke-width="4.0" stroke-linejoin="round" stroke-linecap="butt" d="m501.54062 262.45145l-76.25198 76.25195" fill-rule="evenodd"/><path fill="#000000" fill-opacity="0.0" d="m502.30963 277.67978l-61.007874 61.007874" fill-rule="evenodd"/><path stroke="#ff0000" stroke-width="4.0" stroke-linejoin="round" stroke-linecap="butt" d="m502.30963 277.67978l-61.007874 61.007874" fill-rule="evenodd"/><path fill="#000000" fill-opacity="0.0" d="m501.4251 294.5643l-44.125977 44.125977" fill-rule="evenodd"/><path stroke="#ff0000" stroke-width="4.0" stroke-linejoin="round" stroke-linecap="butt" d="m501.4251 294.5643l-44.125977 44.125977" fill-rule="evenodd"/><path fill="#000000" fill-opacity="0.0" d="m502.34637 309.64304l-29.039368 29.039368" fill-rule="evenodd"/><path stroke="#ff0000" stroke-width="4.0" stroke-linejoin="round" stroke-linecap="butt" d="m502.34637 309.64304l-29.039368 29.039368" fill-rule="evenodd"/><g filter="url(#shadowFilter-p.21)"><use xlink:href="#p.21" transform=""/></g><defs><filter id="shadowFilter-p.21" filterUnits="userSpaceOnUse"><feGaussianBlur in="SourceAlpha" stdDeviation="3.0" result="blur"/><feComponentTransfer in="blur" color-interpolation-filters="sRGB"><feFuncR type="linear" slope="0" intercept="0.0"/><feFuncG type="linear" slope="0" intercept="0.0"/><feFuncB type="linear" slope="0" intercept="0.0"/><feFuncA type="linear" slope="1.0" intercept="0"/></feComponentTransfer></filter></defs><g id="p.21"><defs><linearGradient id="p.22" gradientUnits="userSpaceOnUse" gradientTransform="matrix(17.684812037463946 0.0 0.0 17.684812037463946 0.0 0.0)" spreadMethod="pad" x1="7.263669010045875" y1="15.282412285422073" x2="19.768696625924253" y2="27.78748570090224"><stop offset="0.0" stop-color="#cc0000" stop-opacity="0.5019608"/><stop offset="1.0" stop-color="#a61c00" stop-opacity="0.5019608"/></linearGradient></defs><path fill="url(#p.22)" d="m197.66922 224.12556l0 0c0 -12.741943 10.329376 -23.071335 23.07132 -23.071335l257.73135 0c6.1188965 0 11.987183 2.430725 16.313904 6.757431c4.326721 4.326721 6.7574463 10.195007 6.7574463 16.313904l0 92.28255c0 12.741943 -10.329407 23.07132 -23.07135 23.07132l-257.73135 0c-12.741943 0 -23.07132 -10.329376 -23.07132 -23.07132z" fill-rule="evenodd"/><path stroke="#5b0f00" stroke-width="8.0" stroke-linejoin="round" stroke-linecap="butt" d="m197.66922 224.12556l0 0c0 -12.741943 10.329376 -23.071335 23.07132 -23.071335l257.73135 0c6.1188965 0 11.987183 2.430725 16.313904 6.757431c4.326721 4.326721 6.7574463 10.195007 6.7574463 16.313904l0 92.28255c0 12.741943 -10.329407 23.07132 -23.07135 23.07132l-257.73135 0c-12.741943 0 -23.07132 -10.329376 -23.07132 -23.07132z" fill-rule="evenodd"/></g></g></svg>