<svg version="1.1" viewBox="0.0 0.0 400.0 400.0" fill="none" stroke="none" stroke-linecap="square" stroke-miterlimit="10" xmlns:xlink="http://www.w3.org/1999/xlink" xmlns="http://www.w3.org/2000/svg"><clipPath id="p.0"><path d="m0 0l400.0 0l0 400.0l-400.0 0l0 -400.0z" clip-rule="nonzero"/></clipPath><g clip-path="url(#p.0)"><path fill="#000000" fill-opacity="0.0" d="m0 0l400.0 0l0 400.0l-400.0 0z" fill-rule="evenodd"/><path fill="#ffffff" d="m190.55118 247.2441l0 0c0 -5.218445 4.230377 -9.448822 9.448822 -9.448822l0 0l0 0c2.5059814 0 4.9093323 0.99549866 6.68132 2.7675018c1.7720032 1.7719879 2.7675018 4.1753387 2.7675018 6.68132l0 34.89763c0 5.218445 -4.230377 9.448822 -9.448822 9.448822l0 0l0 0c-5.218445 0 -9.448822 -4.230377 -9.448822 -9.448822z" fill-rule="evenodd"/><path stroke="#000000" stroke-width="12.0" stroke-linejoin="round" stroke-linecap="butt" d="m190.55118 247.2441l0 0c0 -5.218445 4.230377 -9.448822 9.448822 -9.448822l0 0l0 0c2.5059814 0 4.9093323 0.99549866 6.68132 2.7675018c1.7720032 1.7719879 2.7675018 4.1753387 2.7675018 6.68132l0 34.89763c0 5.218445 -4.230377 9.448822 -9.448822 9.448822l0 0l0 0c-5.218445 0 -9.448822 -4.230377 -9.448822 -9.448822z" fill-rule="evenodd"/><path fill="#ffffff" d="m237.79527 200.0l0 0c0 -5.218445 4.230377 -9.448822 9.448822 -9.448822l34.89763 0l0 0c2.5059814 0 4.9093323 0.99549866 6.6813354 2.7675018c1.7720032 1.7719879 2.7674866 4.1753387 2.7674866 6.68132l0 0l0 0c0 5.218445 -4.230377 9.448822 -9.448822 9.448822l-34.89763 0c-5.218445 0 -9.448822 -4.230377 -9.448822 -9.448822z" fill-rule="evenodd"/><path stroke="#000000" stroke-width="12.0" stroke-linejoin="round" stroke-linecap="butt" d="m237.79527 200.0l0 0c0 -5.218445 4.230377 -9.448822 9.448822 -9.448822l34.89763 0l0 0c2.5059814 0 4.9093323 0.99549866 6.6813354 2.7675018c1.7720032 1.7719879 2.7674866 4.1753387 2.7674866 6.68132l0 0l0 0c0 5.218445 -4.230377 9.448822 -9.448822 9.448822l-34.89763 0c-5.218445 0 -9.448822 -4.230377 -9.448822 -9.448822z" fill-rule="evenodd"/><path fill="#000000" fill-opacity="0.0" d="m181.10236 200.0l0 0c0 -10.436874 8.46077 -18.897644 18.897644 -18.897644l0 0c5.011963 0 9.818649 1.9909973 13.36264 5.5350037c3.5440063 3.543991 5.5350037 8.3506775 5.5350037 13.36264l0 0c0 10.436874 -8.46077 18.897644 -18.897644 18.897644l0 0c-10.436874 0 -18.897644 -8.46077 -18.897644 -18.897644z" fill-rule="evenodd"/><path stroke="#000000" stroke-width="12.0" stroke-linejoin="round" stroke-linecap="butt" d="m181.10236 200.0l0 0c0 -10.436874 8.46077 -18.897644 18.897644 -18.897644l0 0c5.011963 0 9.818649 1.9909973 13.36264 5.5350037c3.5440063 3.543991 5.5350037 8.3506775 5.5350037 13.36264l0 0c0 10.436874 -8.46077 18.897644 -18.897644 18.897644l0 0c-10.436874 0 -18.897644 -8.46077 -18.897644 -18.897644z" fill-rule="evenodd"/><path fill="#ffffff" d="m108.40945 200.0l0 0c0 -5.218445 4.230385 -9.448822 9.448822 -9.448822l34.897636 0l0 0c2.5059814 0 4.9093323 0.99549866 6.68132 2.7675018c1.7720032 1.7719879 2.7675018 4.1753387 2.7675018 6.68132l0 0l0 0c0 5.218445 -4.230377 9.448822 -9.448822 9.448822l-34.897636 0c-5.218437 0 -9.448822 -4.230377 -9.448822 -9.448822z" fill-rule="evenodd"/><path stroke="#000000" stroke-width="12.0" stroke-linejoin="round" stroke-linecap="butt" d="m108.40945 200.0l0 0c0 -5.218445 4.230385 -9.448822 9.448822 -9.448822l34.897636 0l0 0c2.5059814 0 4.9093323 0.99549866 6.68132 2.7675018c1.7720032 1.7719879 2.7675018 4.1753387 2.7675018 6.68132l0 0l0 0c0 5.218445 -4.230377 9.448822 -9.448822 9.448822l-34.897636 0c-5.218437 0 -9.448822 -4.230377 -9.448822 -9.448822z" fill-rule="evenodd"/><path fill="#ffffff" d="m190.55118 117.85827l0 0c0 -5.218437 4.230377 -9.448822 9.448822 -9.448822l0 0l0 0c2.5059814 0 4.9093323 0.99549866 6.68132 2.7674942c1.7720032 1.7720032 2.7675018 4.1753464 2.7675018 6.681328l0 34.897636c0 5.218445 -4.230377 9.448822 -9.448822 9.448822l0 0l0 0c-5.218445 0 -9.448822 -4.230377 -9.448822 -9.448822z" fill-rule="evenodd"/><path stroke="#000000" stroke-width="12.0" stroke-linejoin="round" stroke-linecap="butt" d="m190.55118 117.85827l0 0c0 -5.218437 4.230377 -9.448822 9.448822 -9.448822l0 0l0 0c2.5059814 0 4.9093323 0.99549866 6.68132 2.7674942c1.7720032 1.7720032 2.7675018 4.1753464 2.7675018 6.681328l0 34.897636c0 5.218445 -4.230377 9.448822 -9.448822 9.448822l0 0l0 0c-5.218445 0 -9.448822 -4.230377 -9.448822 -9.448822z" fill-rule="evenodd"/><path fill="#000000" fill-opacity="0.0" d="m215.87018 6.0472913l0 0c47.226135 -0.034453392 92.529175 18.704939 125.93115 52.090843c33.401978 33.3859 52.163147 78.67992 52.15143 125.90607l-19.450256 -0.004837036l0 0c0.010467529 -42.06433 -16.700134 -82.40771 -46.451263 -112.14453c-29.75113 -29.736824 -70.10254 -46.428 -112.16687 -46.397316z" fill-rule="evenodd"/><path stroke="#000000" stroke-width="12.0" stroke-linejoin="round" stroke-linecap="butt" d="m215.87018 6.0472913l0 0c47.226135 -0.034453392 92.529175 18.704939 125.93115 52.090843c33.401978 33.3859 52.163147 78.67992 52.15143 125.90607l-19.450256 -0.004837036l0 0c0.010467529 -42.06433 -16.700134 -82.40771 -46.451263 -112.14453c-29.75113 -29.736824 -70.10254 -46.428 -112.16687 -46.397316z" fill-rule="evenodd"/><path fill="#000000" fill-opacity="0.0" d="m184.12982 6.0472913l0 0c-47.22615 -0.034453392 -92.529175 18.704939 -125.93115 52.090843c-33.40197 33.3859 -52.163155 78.67992 -52.151424 125.90607l19.450237 -0.004837036l0 0c-0.010450363 -42.06433 16.700138 -82.40771 46.451275 -112.14453c29.75113 -29.736824 70.10254 -46.428 112.16687 -46.397316z" fill-rule="evenodd"/><path stroke="#000000" stroke-width="12.0" stroke-linejoin="round" stroke-linecap="butt" d="m184.12982 6.0472913l0 0c-47.22615 -0.034453392 -92.529175 18.704939 -125.93115 52.090843c-33.40197 33.3859 -52.163155 78.67992 -52.151424 125.90607l19.450237 -0.004837036l0 0c-0.010450363 -42.06433 16.700138 -82.40771 46.451275 -112.14453c29.75113 -29.736824 70.10254 -46.428 112.16687 -46.397316z" fill-rule="evenodd"/><path fill="#000000" fill-opacity="0.0" d="m215.87018 393.9527l0 0c47.226135 0.034454346 92.529175 -18.704926 125.93115 -52.09082c33.401978 -33.385925 52.163147 -78.67993 52.15143 -125.90608l-19.450256 0.004837036l0 0c0.010467529 42.06433 -16.700134 82.407715 -46.451263 112.14453c-29.75113 29.736816 -70.10254 46.42801 -112.16687 46.39731z" fill-rule="evenodd"/><path stroke="#000000" stroke-width="12.0" stroke-linejoin="round" stroke-linecap="butt" d="m215.87018 393.9527l0 0c47.226135 0.034454346 92.529175 -18.704926 125.93115 -52.09082c33.401978 -33.385925 52.163147 -78.67993 52.15143 -125.90608l-19.450256 0.004837036l0 0c0.010467529 42.06433 -16.700134 82.407715 -46.451263 112.14453c-29.75113 29.736816 -70.10254 46.42801 -112.16687 46.39731z" fill-rule="evenodd"/><path fill="#000000" fill-opacity="0.0" d="m184.12982 393.9527l0 0c-47.22615 0.034454346 -92.529175 -18.704926 -125.93115 -52.09082c-33.40197 -33.385925 -52.163155 -78.67993 -52.151424 -125.90608l19.450237 0.004837036l0 0c-0.010450363 42.06433 16.700138 82.407715 46.451275 112.14453c29.75113 29.736816 70.10254 46.42801 112.16687 46.39731z" fill-rule="evenodd"/><path stroke="#000000" stroke-width="12.0" stroke-linejoin="round" stroke-linecap="butt" d="m184.12982 393.9527l0 0c-47.22615 0.034454346 -92.529175 -18.704926 -125.93115 -52.09082c-33.40197 -33.385925 -52.163155 -78.67993 -52.151424 -125.90608l19.450237 0.004837036l0 0c-0.010450363 42.06433 16.700138 82.407715 46.451275 112.14453c29.75113 29.736816 70.10254 46.42801 112.16687 46.39731z" fill-rule="evenodd"/></g></svg>