<svg version="1.1" viewBox="0.0 0.0 200.0 200.0" fill="none" stroke="none" stroke-linecap="square" stroke-miterlimit="10" xmlns:xlink="http://www.w3.org/1999/xlink" xmlns="http://www.w3.org/2000/svg"><clipPath id="p.0"><path d="m0 0l200.0 0l0 200.0l-200.0 0l0 -200.0z" clip-rule="nonzero"/></clipPath><g clip-path="url(#p.0)"><path fill="#000000" fill-opacity="0.0" d="m0 0l200.0 0l0 200.0l-200.0 0z" fill-rule="evenodd"/><path fill="#ffffff" d="m90.55118 147.2441l0 0c0 -5.218445 4.230385 -9.448822 9.448822 -9.448822l0 0l0 0c2.5059814 0 4.9093246 0.99549866 6.68132 2.7675018c1.7720032 1.7719879 2.7675018 4.1753387 2.7675018 6.68132l0 34.897644c0 5.2184296 -4.230385 9.448807 -9.448822 9.448807l0 0l0 0c-5.218437 0 -9.448822 -4.230377 -9.448822 -9.448807z" fill-rule="evenodd"/><path stroke="#000000" stroke-width="12.0" stroke-linejoin="round" stroke-linecap="butt" d="m90.55118 147.2441l0 0c0 -5.218445 4.230385 -9.448822 9.448822 -9.448822l0 0l0 0c2.5059814 0 4.9093246 0.99549866 6.68132 2.7675018c1.7720032 1.7719879 2.7675018 4.1753387 2.7675018 6.68132l0 34.897644c0 5.2184296 -4.230385 9.448807 -9.448822 9.448807l0 0l0 0c-5.218437 0 -9.448822 -4.230377 -9.448822 -9.448807z" fill-rule="evenodd"/><path fill="#ffffff" d="m137.79527 100.0l0 0c0 -5.218437 4.230377 -9.448822 9.448822 -9.448822l34.897644 0l0 0c2.5059814 0 4.909317 0.99549866 6.68132 2.7675018c1.7719879 1.7719955 2.7674866 4.1753387 2.7674866 6.68132l0 0l0 0c0 5.218437 -4.230377 9.448822 -9.448807 9.448822l-34.897644 0c-5.218445 0 -9.448822 -4.230385 -9.448822 -9.448822z" fill-rule="evenodd"/><path stroke="#000000" stroke-width="12.0" stroke-linejoin="round" stroke-linecap="butt" d="m137.79527 100.0l0 0c0 -5.218437 4.230377 -9.448822 9.448822 -9.448822l34.897644 0l0 0c2.5059814 0 4.909317 0.99549866 6.68132 2.7675018c1.7719879 1.7719955 2.7674866 4.1753387 2.7674866 6.68132l0 0l0 0c0 5.218437 -4.230377 9.448822 -9.448807 9.448822l-34.897644 0c-5.218445 0 -9.448822 -4.230385 -9.448822 -9.448822z" fill-rule="evenodd"/><path fill="#000000" fill-opacity="0.0" d="m81.10236 100.0l0 0c0 -10.436874 8.460762 -18.897636 18.897636 -18.897636l0 0c5.011963 0 9.818657 1.9909973 13.362648 5.5349884c3.543991 3.543991 5.5349884 8.350685 5.5349884 13.362648l0 0c0 10.436874 -8.460762 18.897636 -18.897636 18.897636l0 0c-10.436874 0 -18.897636 -8.460762 -18.897636 -18.897636z" fill-rule="evenodd"/><path stroke="#000000" stroke-width="12.0" stroke-linejoin="round" stroke-linecap="butt" d="m81.10236 100.0l0 0c0 -10.436874 8.460762 -18.897636 18.897636 -18.897636l0 0c5.011963 0 9.818657 1.9909973 13.362648 5.5349884c3.543991 3.543991 5.5349884 8.350685 5.5349884 13.362648l0 0c0 10.436874 -8.460762 18.897636 -18.897636 18.897636l0 0c-10.436874 0 -18.897636 -8.460762 -18.897636 -18.897636z" fill-rule="evenodd"/><path fill="#ffffff" d="m8.409449 100.0l0 0c0 -5.218437 4.23038 -9.448822 9.448818 -9.448822l34.897636 0l0 0c2.5059814 0 4.9093285 0.99549866 6.681324 2.7675018c1.7719994 1.7719955 2.7674942 4.1753387 2.7674942 6.68132l0 0l0 0c0 5.218437 -4.230381 9.448822 -9.448818 9.448822l-34.897636 0c-5.218438 0 -9.448818 -4.230385 -9.448818 -9.448822z" fill-rule="evenodd"/><path stroke="#000000" stroke-width="12.0" stroke-linejoin="round" stroke-linecap="butt" d="m8.409449 100.0l0 0c0 -5.218437 4.23038 -9.448822 9.448818 -9.448822l34.897636 0l0 0c2.5059814 0 4.9093285 0.99549866 6.681324 2.7675018c1.7719994 1.7719955 2.7674942 4.1753387 2.7674942 6.68132l0 0l0 0c0 5.218437 -4.230381 9.448822 -9.448818 9.448822l-34.897636 0c-5.218438 0 -9.448818 -4.230385 -9.448818 -9.448822z" fill-rule="evenodd"/><path fill="#ffffff" d="m90.55118 17.858267l0 0c0 -5.218438 4.230385 -9.448818 9.448822 -9.448818l0 0l0 0c2.5059814 0 4.9093246 0.9954977 6.68132 2.7674952c1.7720032 1.7719975 2.7675018 4.1753416 2.7675018 6.681323l0 34.897636c0 5.218437 -4.230385 9.448818 -9.448822 9.448818l0 0l0 0c-5.218437 0 -9.448822 -4.230381 -9.448822 -9.448818z" fill-rule="evenodd"/><path stroke="#000000" stroke-width="12.0" stroke-linejoin="round" stroke-linecap="butt" d="m90.55118 17.858267l0 0c0 -5.218438 4.230385 -9.448818 9.448822 -9.448818l0 0l0 0c2.5059814 0 4.9093246 0.9954977 6.68132 2.7674952c1.7720032 1.7719975 2.7675018 4.1753416 2.7675018 6.681323l0 34.897636c0 5.218437 -4.230385 9.448818 -9.448822 9.448818l0 0l0 0c-5.218437 0 -9.448822 -4.230381 -9.448822 -9.448818z" fill-rule="evenodd"/></g></svg>